<svg width="1200" height="750" viewBox="0 0 1200 750" fill="none" xmlns="http://www.w3.org/2000/svg">
  <defs>
    <clipPath id="cardClip">
      <rect width="1200" height="750" rx="42"/>
    </clipPath>

    <clipPath id="iconClip">
      <rect x="96" y="112" width="120" height="120" rx="30"/>
    </clipPath>

    <clipPath id="phoneClip">
      <rect x="742" y="76" width="306" height="620" rx="54"/>
    </clipPath>

    <linearGradient id="bg" x1="0" y1="0" x2="1200" y2="750">
      <stop offset="0%" stop-color="#02040A"/>
      <stop offset="45%" stop-color="#071225"/>
      <stop offset="100%" stop-color="#03030A"/>
    </linearGradient>

    <radialGradient id="purpleGlow" cx="73%" cy="48%" r="58%">
      <stop offset="0%" stop-color="#4F46E5" stop-opacity="0.5"/>
      <stop offset="45%" stop-color="#7C3AED" stop-opacity="0.16"/>
      <stop offset="100%" stop-color="#000000" stop-opacity="0"/>
    </radialGradient>

    <radialGradient id="goldGlow" cx="24%" cy="22%" r="42%">
      <stop offset="0%" stop-color="#FFD66B" stop-opacity="0.25"/>
      <stop offset="65%" stop-color="#D99A2B" stop-opacity="0.05"/>
      <stop offset="100%" stop-color="#000000" stop-opacity="0"/>
    </radialGradient>

    <linearGradient id="gold" x1="0" y1="0" x2="1" y2="1">
      <stop offset="0%" stop-color="#FFF3B0"/>
      <stop offset="45%" stop-color="#F8C84E"/>
      <stop offset="100%" stop-color="#B56A17"/>
    </linearGradient>

    <linearGradient id="cyan" x1="0" y1="0" x2="1" y2="1">
      <stop offset="0%" stop-color="#7EE7FF"/>
      <stop offset="50%" stop-color="#23A8FF"/>
      <stop offset="100%" stop-color="#2563EB"/>
    </linearGradient>

    <filter id="softShadow" x="-30%" y="-30%" width="160%" height="160%">
      <feDropShadow dx="0" dy="24" stdDeviation="32" flood-color="#000000" flood-opacity="0.55"/>
    </filter>

    <filter id="blueGlow" x="-70%" y="-70%" width="240%" height="240%">
      <feGaussianBlur stdDeviation="14" result="blur"/>
      <feColorMatrix in="blur" type="matrix"
        values="0 0 0 0 0.1
                0 0 0 0 0.65
                0 0 0 0 1
                0 0 0 0.65 0"/>
      <feBlend in="SourceGraphic"/>
    </filter>
  </defs>

  <g clip-path="url(#cardClip)">
    <rect width="1200" height="750" fill="url(#bg)"/>
    <rect width="1200" height="750" fill="url(#purpleGlow)"/>
    <rect width="1200" height="750" fill="url(#goldGlow)"/>

    <!-- Subtle star field -->
    <g opacity="0.9">
      <circle cx="80" cy="82" r="1.6" fill="white"/>
      <circle cx="178" cy="162" r="1.2" fill="#9FE8FF"/>
      <circle cx="340" cy="82" r="1.4" fill="white"/>
      <circle cx="505" cy="155" r="1.1" fill="#9FE8FF"/>
      <circle cx="642" cy="70" r="1.5" fill="white"/>
      <circle cx="1098" cy="110" r="1.7" fill="white"/>
      <circle cx="1126" cy="302" r="1.2" fill="#9FE8FF"/>
      <circle cx="1070" cy="620" r="1.4" fill="white"/>
      <circle cx="872" cy="680" r="1.2" fill="#9FE8FF"/>
      <circle cx="540" cy="650" r="1.3" fill="white"/>
      <circle cx="290" cy="610" r="1.2" fill="#9FE8FF"/>
      <circle cx="122" cy="570" r="1.4" fill="white"/>
    </g>

    <!-- Background orbit rings -->
    <g opacity="0.24">
      <ellipse cx="840" cy="382" rx="420" ry="150" stroke="#29BFFF" stroke-width="2"/>
      <ellipse cx="840" cy="382" rx="510" ry="186" stroke="#FFD66B" stroke-width="1.4"/>
      <ellipse cx="840" cy="382" rx="320" ry="110" stroke="white" stroke-opacity="0.55" stroke-width="1"/>
    </g>

    <!-- Left content panel -->
    <rect x="64" y="72" width="560" height="606" rx="38" fill="#05070D" fill-opacity="0.72" stroke="white" stroke-opacity="0.1"/>

    <!-- App icon -->
    <g filter="url(#softShadow)">
      <rect x="96" y="112" width="120" height="120" rx="30" fill="#05070D" stroke="white" stroke-opacity="0.14" stroke-width="2"/>
      <g clip-path="url(#iconClip)">
        <image href="/starColonyIcon51.png" x="96" y="112" width="120" height="120" preserveAspectRatio="xMidYMid slice"/>
      </g>
    </g>

    <!-- Main text -->
    <text x="96" y="306" fill="#F8FBFF" font-family="Inter, Arial, sans-serif" font-size="66" font-weight="850" letter-spacing="-2">
      Star Colony
    </text>

    <text x="100" y="350" fill="#97A9C9" font-family="Inter, Arial, sans-serif" font-size="22" font-weight="500">
      Idle space colony builder for iOS
    </text>

    <rect x="100" y="390" width="350" height="1" fill="white" opacity="0.12"/>

    <text x="100" y="452" fill="#FFFFFF" font-family="Inter, Arial, sans-serif" font-size="34" font-weight="800">
      Tap. Upgrade. Expand.
    </text>

    <text x="100" y="498" fill="#B4C1D8" font-family="Inter, Arial, sans-serif" font-size="20" font-weight="400">
      A polished mobile idle game where players
    </text>
    <text x="100" y="530" fill="#B4C1D8" font-family="Inter, Arial, sans-serif" font-size="20" font-weight="400">
      earn resources, upgrade their colony,
    </text>
    <text x="100" y="562" fill="#B4C1D8" font-family="Inter, Arial, sans-serif" font-size="20" font-weight="400">
      claim rewards, and grow across space.
    </text>

    <!-- Badges -->
    <g>
      <rect x="100" y="610" width="92" height="42" rx="21" fill="#23A8FF" fill-opacity="0.14" stroke="#23A8FF" stroke-opacity="0.4"/>
      <text x="128" y="637" fill="#7EE7FF" font-family="Inter, Arial, sans-serif" font-size="14" font-weight="800">iOS</text>

      <rect x="206" y="610" width="128" height="42" rx="21" fill="#FFD66B" fill-opacity="0.13" stroke="#FFD66B" stroke-opacity="0.35"/>
      <text x="237" y="637" fill="#FFD66B" font-family="Inter, Arial, sans-serif" font-size="14" font-weight="800">EXPO</text>

      <rect x="348" y="610" width="132" height="42" rx="21" fill="white" fill-opacity="0.06" stroke="white" stroke-opacity="0.14"/>
      <text x="383" y="637" fill="#EAF1FF" font-family="Inter, Arial, sans-serif" font-size="14" font-weight="800">GAME</text>
    </g>

    <!-- Phone frame -->
    <g filter="url(#softShadow)">
      <rect x="720" y="52" width="350" height="668" rx="70" fill="#05060B" stroke="white" stroke-opacity="0.18" stroke-width="2"/>
      <rect x="742" y="76" width="306" height="620" rx="54" fill="#0B1020" stroke="white" stroke-opacity="0.08"/>

      <g clip-path="url(#phoneClip)">
        <image href="/starColonyGameplay.png" x="742" y="76" width="306" height="620" preserveAspectRatio="xMidYMid slice"/>
        <rect x="742" y="76" width="306" height="620" fill="url(#cyan)" opacity="0.06"/>
      </g>

      <!-- Dynamic island -->
      <rect x="840" y="94" width="110" height="28" rx="14" fill="#030306"/>
    </g>

    <!-- Floating stat card -->
    <g filter="url(#softShadow)">
      <rect x="600" y="486" width="220" height="116" rx="26" fill="#060A14" fill-opacity="0.86" stroke="#23A8FF" stroke-opacity="0.28"/>
      <text x="628" y="526" fill="#8FA4C9" font-family="Inter, Arial, sans-serif" font-size="13" font-weight="800" letter-spacing="1.5">
        LIVE APP STORE APP
      </text>
      <text x="628" y="566" fill="#FFFFFF" font-family="Inter, Arial, sans-serif" font-size="32" font-weight="850">
        Built &amp; Shipped
      </text>
    </g>

    <!-- Floating gem marker -->
    <g filter="url(#blueGlow)">
      <circle cx="640" cy="198" r="38" fill="#061122" stroke="#23A8FF" stroke-opacity="0.5"/>
      <path d="M640 169L664 198L640 227L616 198L640 169Z" fill="url(#cyan)"/>
      <path d="M640 169L652 198H628L640 169Z" fill="#BDF5FF" opacity="0.9"/>
    </g>

    <!-- Bottom shine -->
    <rect x="0" y="690" width="1200" height="60" fill="url(#gold)" opacity="0.06"/>
  </g>
</svg>